<svg width="6" height="9" viewBox="0 0 6 9" fill="none" xmlns="http://www.w3.org/2000/svg">
<path d="M0.767045 8.04545V0.545454H1.5767V1.41193H1.67614C1.73769 1.31723 1.82292 1.1965 1.93182 1.04972C2.04309 0.900568 2.2017 0.767992 2.40767 0.651989C2.616 0.533617 2.89773 0.474432 3.25284 0.474432C3.71212 0.474432 4.11695 0.589252 4.46733 0.818892C4.81771 1.04853 5.09115 1.37405 5.28764 1.79545C5.48414 2.21686 5.58239 2.71402 5.58239 3.28693C5.58239 3.86458 5.48414 4.36529 5.28764 4.78906C5.09115 5.21046 4.81889 5.53717 4.47088 5.76918C4.12287 5.99882 3.72159 6.11364 3.26705 6.11364C2.91667 6.11364 2.63613 6.05563 2.42543 5.93963C2.21473 5.82126 2.05256 5.6875 1.93892 5.53835C1.82528 5.38684 1.73769 5.26136 1.67614 5.16193H1.60511V8.04545H0.767045ZM1.59091 3.27273C1.59091 3.68466 1.65128 4.04806 1.77202 4.36293C1.89276 4.67543 2.06913 4.92045 2.30114 5.09801C2.53314 5.2732 2.81723 5.3608 3.15341 5.3608C3.50379 5.3608 3.79616 5.26847 4.03054 5.08381C4.26728 4.89678 4.44484 4.64583 4.56321 4.33097C4.68395 4.01373 4.74432 3.66098 4.74432 3.27273C4.74432 2.8892 4.68513 2.54356 4.56676 2.2358C4.45076 1.92566 4.27438 1.68063 4.03764 1.50071C3.80327 1.31842 3.50852 1.22727 3.15341 1.22727C2.8125 1.22727 2.52604 1.31368 2.29403 1.48651C2.06203 1.65696 1.88684 1.89607 1.76847 2.20384C1.65009 2.50923 1.59091 2.86553 1.59091 3.27273Z" fill="#8A92A6"/>
</svg>
