<svg width="24" height="24" viewBox="0 0 24 24" fill="none" xmlns="http://www.w3.org/2000/svg">
<path d="M6.33857 19.4157H0.606094C0.271358 19.4157 0 19.1444 0 18.8096V6.08925C0 5.75451 0.271358 5.48315 0.606094 5.48315H6.33857C6.67331 5.48315 6.94466 5.75451 6.94466 6.08925V18.8096C6.94466 19.1444 6.67331 19.4157 6.33857 19.4157Z" fill="white"/>
<path d="M6.38549 4.94386H0.606094C0.271358 4.94386 0 4.6725 0 4.33776V3.52748C0 3.19274 0.271357 2.92139 0.606093 2.92139H6.38549C6.72023 2.92139 6.99159 3.19274 6.99159 3.52748V4.33776C6.99159 4.6725 6.72023 4.94386 6.38549 4.94386Z" fill="white"/>
<path d="M5.02468 11.3259H1.82606C1.49133 11.3259 1.21997 11.0545 1.21997 10.7198V7.61735C1.21997 7.28262 1.49133 7.01126 1.82606 7.01126H5.02468C5.35941 7.01126 5.63077 7.28262 5.63077 7.61735V10.7198C5.63077 11.0545 5.35941 11.3259 5.02468 11.3259Z" fill="#F5F5F5"/>
<path d="M13.0017 1.61798H8.3954C8.06066 1.61798 7.78931 1.34662 7.78931 1.01188V0.606094C7.78931 0.271357 8.06066 0 8.3954 0H13.0017C13.3365 0 13.6078 0.271357 13.6078 0.606094V1.01188C13.6078 1.34662 13.3365 1.61798 13.0017 1.61798Z" fill="white"/>
<path d="M13.2442 3.32583H8.15296C7.95212 3.32583 7.78931 3.16301 7.78931 2.96217V2.52094C7.78931 2.3201 7.95212 2.15729 8.15296 2.15729H13.2442C13.445 2.15729 13.6078 2.3201 13.6078 2.52094V2.96217C13.6078 3.16301 13.445 3.32583 13.2442 3.32583Z" fill="white"/>
<path d="M13.3294 23.729H8.34804C8.0133 23.729 7.74194 23.4576 7.74194 23.1229V20.6274C7.74194 20.2927 8.0133 20.0213 8.34804 20.0213H13.3294C13.6641 20.0213 13.9355 20.2927 13.9355 20.6274V23.1229C13.9355 23.4576 13.6641 23.729 13.3294 23.729Z" fill="white"/>
<path d="M20.3455 6.73453L14.4302 7.76534C14.1005 7.82281 13.7825 7.6028 13.72 7.27394L13.4759 5.98864C13.4134 5.65978 13.6301 5.3466 13.9599 5.28914L19.8752 4.25833C20.205 4.20086 20.5229 4.42087 20.5854 4.74973L20.8295 6.03504C20.892 6.36389 20.6753 6.67707 20.3455 6.73453Z" fill="white"/>
<path d="M20.8531 8.10803L14.4601 9.22207C14.2622 9.25655 14.0714 9.12455 14.034 8.92724L14.0017 8.75741C13.9642 8.5601 14.0942 8.3722 14.2921 8.33772L20.6851 7.22367C20.8829 7.18919 21.0737 7.32119 21.1112 7.5185L21.1435 7.68833C21.1809 7.88564 21.0509 8.07355 20.8531 8.10803Z" fill="white"/>
<path d="M23.0874 19.8699L16.6945 20.984C16.4966 21.0185 16.3058 20.8865 16.2683 20.6891L16.2361 20.5193C16.1986 20.322 16.3286 20.1341 16.5265 20.0996L22.9195 18.9856C23.1173 18.9511 23.3081 19.0831 23.3456 19.2804L23.3778 19.4502C23.4153 19.6475 23.2853 19.8354 23.0874 19.8699Z" fill="white"/>
<path d="M22.5797 18.4965L16.6644 19.5273C16.3346 19.5848 16.0166 19.3648 15.9542 19.0359L14.3157 10.4104C14.2533 10.0816 14.47 9.76842 14.7997 9.71095L20.715 8.68014C21.0448 8.62268 21.3628 8.84268 21.4252 9.17154L23.0637 17.797C23.1261 18.1259 22.9094 18.4391 22.5797 18.4965Z" fill="white"/>
<path d="M23.403 22.8299L17.4877 23.8607C17.1579 23.9182 16.8399 23.6982 16.7775 23.3693L16.5501 22.1724C16.4877 21.8436 16.7043 21.5304 17.0341 21.4729L22.9494 20.4421C23.2792 20.3847 23.5971 20.6047 23.6596 20.9335L23.887 22.1304C23.9494 22.4593 23.7327 22.7724 23.403 22.8299Z" fill="white"/>
<path d="M13.0017 19.5056H8.3954C8.06066 19.5056 7.78931 19.2342 7.78931 18.8995V4.47124C7.78931 4.1365 8.06066 3.86514 8.3954 3.86514H13.0017C13.3365 3.86514 13.6078 4.1365 13.6078 4.47124V18.8995C13.6078 19.2342 13.3365 19.5056 13.0017 19.5056Z" fill="white"/>
<path d="M6.58101 20.8539H0.363656C0.162815 20.8539 0 20.691 0 20.4902V20.3186C0 20.1178 0.162815 19.955 0.363657 19.955H6.58101C6.78185 19.955 6.94466 20.1178 6.94466 20.3186V20.4902C6.94466 20.691 6.78185 20.8539 6.58101 20.8539Z" fill="white"/>
<path d="M6.33857 24H0.606094C0.271358 24 0 23.7287 0 23.3939V21.9994C0 21.6646 0.271358 21.3933 0.606094 21.3933H6.33857C6.67331 21.3933 6.94466 21.6646 6.94466 21.9994V23.3939C6.94466 23.7287 6.67331 24 6.33857 24Z" fill="white"/>
</svg>
