<svg width="36" height="36" viewBox="0 0 36 36" fill="none" xmlns="http://www.w3.org/2000/svg">
<circle cx="18" cy="18" r="18" fill="#D97E3F"/>
<path d="M17.9999 7.33331C17.717 7.33331 17.4457 7.44569 17.2457 7.64573C17.0456 7.84577 16.9333 8.11708 16.9333 8.39998V10.5333C16.9333 10.8162 17.0456 11.0875 17.2457 11.2876C17.4457 11.4876 17.717 11.6 17.9999 11.6C18.2828 11.6 18.5541 11.4876 18.7542 11.2876C18.9542 11.0875 19.0666 10.8162 19.0666 10.5333V8.39998C19.0666 8.11708 18.9542 7.84577 18.7542 7.64573C18.5541 7.44569 18.2828 7.33331 17.9999 7.33331ZM27.5999 16.9333H25.4666C25.1837 16.9333 24.9124 17.0457 24.7123 17.2457C24.5123 17.4458 24.3999 17.7171 24.3999 18C24.3999 18.2829 24.5123 18.5542 24.7123 18.7542C24.9124 18.9543 25.1837 19.0666 25.4666 19.0666H27.5999C27.8828 19.0666 28.1541 18.9543 28.3542 18.7542C28.5542 18.5542 28.6666 18.2829 28.6666 18C28.6666 17.7171 28.5542 17.4458 28.3542 17.2457C28.1541 17.0457 27.8828 16.9333 27.5999 16.9333ZM11.5999 18C11.5999 17.7171 11.4875 17.4458 11.2875 17.2457C11.0875 17.0457 10.8161 16.9333 10.5333 16.9333H8.39992C8.11702 16.9333 7.84571 17.0457 7.64567 17.2457C7.44563 17.4458 7.33325 17.7171 7.33325 18C7.33325 18.2829 7.44563 18.5542 7.64567 18.7542C7.84571 18.9543 8.11702 19.0666 8.39992 19.0666H10.5333C10.8161 19.0666 11.0875 18.9543 11.2875 18.7542C11.4875 18.5542 11.5999 18.2829 11.5999 18ZM11.8346 10.5333C11.6267 10.3367 11.3491 10.2307 11.0631 10.2387C10.777 10.2467 10.5059 10.3681 10.3093 10.576C10.1126 10.7839 10.0067 11.0614 10.0147 11.3475C10.0227 11.6335 10.144 11.9047 10.3519 12.1013L11.8879 13.584C11.991 13.6835 12.1131 13.7613 12.2469 13.8126C12.3806 13.8639 12.5234 13.8877 12.6666 13.8826C12.8103 13.8821 12.9524 13.8525 13.0843 13.7957C13.2163 13.7389 13.3354 13.656 13.4346 13.552C13.6333 13.3521 13.7448 13.0818 13.7448 12.8C13.7448 12.5182 13.6333 12.2478 13.4346 12.048L11.8346 10.5333ZM23.3333 13.8826C23.6079 13.8816 23.8715 13.7746 24.0693 13.584L25.6053 12.1013C25.7926 11.9055 25.8985 11.6458 25.9013 11.3748C25.904 11.1038 25.8036 10.8419 25.6203 10.6423C25.437 10.4427 25.1846 10.3203 24.9143 10.3001C24.6441 10.2799 24.3762 10.3632 24.1653 10.5333L22.6293 12.048C22.4306 12.2478 22.3191 12.5182 22.3191 12.8C22.3191 13.0818 22.4306 13.3521 22.6293 13.552C22.8139 13.7469 23.0653 13.865 23.3333 13.8826ZM17.9999 24.4C17.717 24.4 17.4457 24.5124 17.2457 24.7124C17.0456 24.9124 16.9333 25.1838 16.9333 25.4666V27.6C16.9333 27.8829 17.0456 28.1542 17.2457 28.3542C17.4457 28.5543 17.717 28.6666 17.9999 28.6666C18.2828 28.6666 18.5541 28.5543 18.7542 28.3542C18.9542 28.1542 19.0666 27.8829 19.0666 27.6V25.4666C19.0666 25.1838 18.9542 24.9124 18.7542 24.7124C18.5541 24.5124 18.2828 24.4 17.9999 24.4ZM24.1119 22.416C23.9082 22.2194 23.6348 22.1117 23.3517 22.1167C23.0687 22.1217 22.7992 22.239 22.6026 22.4426C22.406 22.6463 22.2983 22.9198 22.3033 23.2028C22.3083 23.4859 22.4256 23.7554 22.6293 23.952L24.1653 25.4666C24.363 25.6572 24.6266 25.7642 24.9013 25.7653C25.0442 25.7661 25.1858 25.7383 25.3177 25.6833C25.4497 25.6283 25.5692 25.5474 25.6693 25.4453C25.7692 25.3462 25.8486 25.2282 25.9027 25.0982C25.9569 24.9682 25.9848 24.8288 25.9848 24.688C25.9848 24.5472 25.9569 24.4077 25.9027 24.2778C25.8486 24.1478 25.7692 24.0298 25.6693 23.9306L24.1119 22.416ZM11.8879 22.416L10.3519 23.8986C10.2519 23.9978 10.1726 24.1158 10.1184 24.2458C10.0643 24.3757 10.0364 24.5152 10.0364 24.656C10.0364 24.7968 10.0643 24.9362 10.1184 25.0662C10.1726 25.1962 10.2519 25.3142 10.3519 25.4133C10.452 25.5154 10.5715 25.5963 10.7034 25.6513C10.8354 25.7063 10.977 25.7341 11.1199 25.7333C11.3829 25.7356 11.6374 25.6406 11.8346 25.4666L13.3706 23.984C13.5743 23.7874 13.6915 23.5179 13.6965 23.2348C13.7015 22.9518 13.5939 22.6783 13.3973 22.4746C13.2006 22.271 12.9312 22.1537 12.6481 22.1487C12.3651 22.1437 12.0916 22.2514 11.8879 22.448V22.416Z" fill="white"/>
</svg>
