<svg width="24" height="24" viewBox="0 0 24 24" fill="none" xmlns="http://www.w3.org/2000/svg">
<g clip-path="url(#clip0_144_2)">
<path d="M12 0.587891C5.3832 0.587891 0 4.99692 0 10.4164C0 13.6099 1.85597 16.5568 4.99613 18.4017C4.56047 20.4384 3.5841 21.8676 3.57341 21.8831L2.506 23.412L4.35734 23.1748C4.5706 23.1473 9.53742 22.489 13.0775 20.2054C15.9847 19.9938 18.6848 18.9273 20.7021 17.1896C22.8288 15.3575 24 12.9521 24 10.4165C24 4.99692 18.6168 0.587891 12 0.587891ZM12.7584 18.5695L12.5325 18.5824L12.3447 18.7086C10.2861 20.0916 7.53013 20.8588 5.79638 21.2339C6.16008 20.4209 6.5423 19.34 6.73308 18.0922L6.82224 17.509L6.29972 17.2351C3.39023 15.7104 1.65318 13.1615 1.65318 10.4164C1.65318 5.9086 6.29476 2.24107 12 2.24107C17.7052 2.24107 22.3468 5.90849 22.3468 10.4164C22.3468 14.6796 18.1351 18.2608 12.7584 18.5695Z" fill="white" stroke="white" stroke-width="0.293899"/>
</g>
<defs>
<clipPath id="clip0_144_2">
<rect width="24" height="24" fill="white"/>
</clipPath>
</defs>
</svg>
