<svg width="24" height="24" viewBox="0 0 24 24" fill="none" xmlns="http://www.w3.org/2000/svg">
<rect x="3" y="3" width="21" height="14.6842" rx="1.21053" fill="#294E75"/>
<rect y="6.13037" width="21.9503" height="14.8696" rx="1.21053" fill="#F5F5F5"/>
<path d="M9.97496 13.1309C7.69247 11.5943 4.42763 9.38411 2.54755 8.10883C2.08341 7.794 2.30061 7.09863 2.86146 7.09863H18.268C18.8358 7.09863 19.0616 7.83294 18.5919 8.15194L11.2653 13.1278C10.876 13.3922 10.3653 13.3937 9.97496 13.1309Z" fill="#294E75"/>
<path d="M9.87717 14.5215L0.902823 8.35697C0.520334 8.09424 0 8.36808 0 8.83212V19.8471C0 20.4838 0.516167 21 1.15289 21H19.8471C20.4839 21 21 20.4838 21 19.8471V8.8359C21 8.37112 20.4782 8.09744 20.0958 8.36169L11.1854 14.5197C10.7919 14.7916 10.2714 14.7923 9.87717 14.5215Z" fill="#294E75"/>
</svg>
