<?xml version="1.0" encoding="UTF-8" standalone="no"?>
<svg
   viewBox="-72 10 362 200"
   version="1.1"
   id="svg4"
   sodipodi:docname="1106336.svg"
   inkscape:version="1.1.2 (b8e25be833, 2022-02-05)"
   xmlns:inkscape="http://www.inkscape.org/namespaces/inkscape"
   xmlns:sodipodi="http://sodipodi.sourceforge.net/DTD/sodipodi-0.dtd"
   xmlns="http://www.w3.org/2000/svg"
   xmlns:svg="http://www.w3.org/2000/svg">
  <defs
     id="defs8" />
  <sodipodi:namedview
     id="namedview6"
     pagecolor="#505050"
     bordercolor="#eeeeee"
     borderopacity="1"
     inkscape:pageshadow="0"
     inkscape:pageopacity="0"
     inkscape:pagecheckerboard="0"
     showgrid="false"
     inkscape:zoom="1.621547"
     inkscape:cx="208.44293"
     inkscape:cy="197.95911"
     inkscape:window-width="1920"
     inkscape:window-height="1017"
     inkscape:window-x="-8"
     inkscape:window-y="-8"
     inkscape:window-maximized="1"
     inkscape:current-layer="svg4" />
  <path
     d="M 88.9271,169.291 88.9271,171.54231 82.73591,171.54231 82.73591,172.38668 71.61991,172.38668 71.61991,174.63799 53.32781,174.63799 53.32781,180.96992 22.79401,180.96992 22.79401,199.68422 8.58231,199.68422 8.58231,193.63376 3.93896,193.63376 3.93896,189.97534 -8.72484,189.97534 -8.72484,184.06543 -24.90644,184.06543 -24.90644,189.97534 -33.91185,189.97534 -33.91185,172.52744 -75.43985,172.52744 -75.43985,214.49414 -68.80571,214.49414 -33.91191,214.49414 -22.51441,214.49414 -15.47884,214.49414 372.42816,214.49414 372.42816,210.09664 372.45526,210.09664 372.45526,180.54774 317.57866,180.54774 317.57866,183.78398 305.05556,183.78398 305.05556,191.24155 285.21556,191.24155 285.21556,202.77975 267.48636,202.77975 267.48636,192.78941 218.66026,192.78941 218.66026,202.21701 208.52916,202.21701 208.52916,191.80451 195.72476,191.80451 195.72476,182.09562 181.79456,182.09562 181.79456,191.80451 164.34666,191.80451 164.34666,184.90985 132.82796,184.90985 132.82796,180.68851 97.65066,180.68851 97.65066,171.54236 91.74093,171.54236 91.74093,169.29105 88.9267,169.29105 Z"
     id="path2" />
  <g
     id="g208018"
     transform="translate(8.037781,-0.62452)">
    <path
       style="fill:none;stroke:none;stroke-width:0.525448px;stroke-linecap:butt;stroke-linejoin:miter;stroke-opacity:1"
       d="m 103.37576,30.10909 7.37193,-4.293544 4.61759,2.592328 0.32404,2.511318 -4.6986,4.050513 h -5.5897 z"
       id="path889" />
    <path
       style="fill:none;stroke:none;stroke-width:0.525448px;stroke-linecap:butt;stroke-linejoin:miter;stroke-opacity:1"
       d="m 96.165845,35.050716 11.746495,-4.293544 13.28568,4.212533 -12.23255,4.050514 z"
       id="path891" />
    <path
       style="fill:#424242;fill-opacity:1;stroke:none;stroke-width:0.525448px;stroke-linecap:butt;stroke-linejoin:miter;stroke-opacity:1"
       d="m 105.48203,174.95544 4.21253,5.10365 26.8144,6.23779 -19.76651,19.11843 -18.956397,-1.62021 -6.318799,-16.93115 z"
       id="path897" />
    <path
       style="fill:#909090;fill-opacity:1;stroke:none;stroke-width:0.525448px;stroke-linecap:butt;stroke-linejoin:miter;stroke-opacity:1"
       d="m 66.35407,176.9807 8.344059,-3.9695 7.857993,1.45818 15.067909,-2.18727 7.857999,2.67333 -14.014776,11.90851 z"
       id="path899" />
    <path
       style="fill:#565752;fill-opacity:1;stroke:none;stroke-width:0.525448px;stroke-linecap:butt;stroke-linejoin:miter;stroke-opacity:1"
       d="m 83.771278,202.90399 -17.498219,-18.55135 0.08101,-7.37194 25.113184,9.88325 6.318799,16.93115 z"
       id="path901" />
    <path
       style="fill:#353535;fill-opacity:1;stroke:none;stroke-width:0.525448px;stroke-linecap:butt;stroke-linejoin:miter;stroke-opacity:1"
       d="m 136.50896,186.29688 20.00954,-7.939 2.67333,15.22993 -16.52609,8.02001 -25.92329,3.80749 19.76651,-19.11843"
       id="path903" />
    <path
       style="fill:#666666;fill-opacity:1;stroke:none;stroke-width:0.525448px;stroke-linecap:butt;stroke-linejoin:miter;stroke-opacity:1"
       d="m 147.52636,170.41887 8.99214,7.93901 -20.00954,7.939 -26.8144,-6.23779 -4.21253,-5.10365 34.67239,-0.081 z"
       id="path905" />
    <path
       style="fill:#353535;fill-opacity:1;stroke:none;stroke-width:0.525448px;stroke-linecap:butt;stroke-linejoin:miter;stroke-opacity:1"
       d="m 159.02982,151.94853 -16.446,10.06295 -14.58094,-12.57427 24.87015,-13.04265 z"
       id="path907" />
    <path
       style="fill:#28272c;fill-opacity:1;stroke:none;stroke-width:0.525448px;stroke-linecap:butt;stroke-linejoin:miter;stroke-opacity:1"
       d="m 155.62738,165.72027 3.40244,-13.77174 -16.446,10.06295 -37.10179,12.94396 34.67239,-0.081 z"
       id="path909" />
    <path
       style="fill:#424242;fill-opacity:1;stroke:none;stroke-width:0.525448px;stroke-linecap:butt;stroke-linejoin:miter;stroke-opacity:1"
       d="m 109.12749,149.59923 18.87539,-0.16202 14.58094,12.57427 -37.10179,12.94396 -7.857999,-2.67333 z"
       id="path911" />
    <path
       style="fill:#565752;fill-opacity:1;stroke:none;stroke-width:0.525448px;stroke-linecap:butt;stroke-linejoin:miter;stroke-opacity:1"
       d="m 82.556122,174.46938 -4.860613,-15.95902 14.338814,-14.09579 17.093167,5.18466 -11.503459,22.68288 z"
       id="path913" />
    <path
       style="fill:#666666;fill-opacity:1;stroke:none;stroke-width:0.525448px;stroke-linecap:butt;stroke-linejoin:miter;stroke-opacity:1"
       d="m 54.688592,158.8344 23.006917,-0.32404 4.860613,15.95902 -18.713371,-2.99738 z"
       id="path915" />
    <path
       style="fill:#909090;fill-opacity:1;stroke:none;stroke-width:0.525448px;stroke-linecap:butt;stroke-linejoin:miter;stroke-opacity:1"
       d="m 60.278299,146.52084 16.202054,-5.26566 2.268285,2.75434 13.285685,0.40505 -14.338814,14.09579 -23.006917,0.32404 z"
       id="path917" />
    <path
       style="fill:#909090;fill-opacity:1;stroke:none;stroke-width:0.525448px;stroke-linecap:butt;stroke-linejoin:miter;stroke-opacity:1"
       d="m 92.034323,144.41457 19.604487,-10.20729 5.5897,-7.61497 12.5566,-1.94424 23.08792,11.74649 -24.87015,13.04265 -18.87539,0.16202 z"
       id="path919" />
    <path
       style="fill:#353535;fill-opacity:1;stroke:none;stroke-width:0.525448px;stroke-linecap:butt;stroke-linejoin:miter;stroke-opacity:1"
       d="m 78.748638,144.00952 11.098408,-19.7665 19.442464,-1.78223 28.67764,-25.59924 -20.73864,29.73076 -5.5897,7.61497 -19.604487,10.20729 -13.285685,-0.40505"
       id="path921" />
    <path
       style="fill:#565752;fill-opacity:1;stroke:none;stroke-width:0.525448px;stroke-linecap:butt;stroke-linejoin:miter;stroke-opacity:1"
       d="m 89.847046,124.24302 8.182037,-18.06529 -25.599244,-11.17942 -4.131523,6.3188 -6.427239,7.94847 6.83229,3.636 21.143679,11.34144"
       id="path923"
       sodipodi:nodetypes="ccccccc" />
    <path
       style="fill:#909090;fill-opacity:1;stroke:none;stroke-width:0.525448px;stroke-linecap:butt;stroke-linejoin:miter;stroke-opacity:1"
       d="m 98.920195,85.11506 7.371935,-0.972123 18.9564,-0.648082 5.10365,0.08101 L 98.029083,106.17773 72.429839,94.99831 c 9.407414,-2.25528 18.161975,-5.685704 26.490356,-9.88325 z"
       id="path1053"
       sodipodi:nodetypes="ccccccc" />
    <path
       style="fill:#424242;fill-opacity:1;stroke:none;stroke-width:0.525448px;stroke-linecap:butt;stroke-linejoin:miter;stroke-opacity:1"
       d="m 137.96715,96.86155 -7.61497,-13.285685 -32.323097,22.601865 -8.182037,18.06529 19.442464,-1.78223 28.67764,-25.59924 v 0"
       id="path1221" />
    <path
       style="fill:#28272c;fill-opacity:1;stroke:none;stroke-width:0.525448px;stroke-linecap:butt;stroke-linejoin:miter;stroke-opacity:1"
       d="m 121.68408,70.776243 4.21254,12.799622 14.50083,-7.857996 -0.48606,-12.880632 z"
       id="path1223" />
    <path
       style="fill:#353535;fill-opacity:1;stroke:none;stroke-width:0.525448px;stroke-linecap:butt;stroke-linejoin:miter;stroke-opacity:1"
       d="m 96.894941,77.176054 12.718609,-1.944246 12.07053,-4.455565 4.21254,12.799622 -7.79716,2.696778 -11.80733,-2.129706 -9.802241,-6.804862"
       id="path1225"
       sodipodi:nodetypes="ccccccc" />
    <path
       style="fill:#565752;fill-opacity:1;stroke:none;stroke-width:0.525448px;stroke-linecap:butt;stroke-linejoin:miter;stroke-opacity:1"
       d="m 87.9028,55.708334 -2.916372,8.992139 11.503461,12.637602 13.123661,-2.106267 z"
       id="path1227" />
    <path
       style="fill:#666666;fill-opacity:1;stroke:none;stroke-width:0.525448px;stroke-linecap:butt;stroke-linejoin:miter;stroke-opacity:1"
       d="m 139.91139,62.837237 -8.83012,-5.832739 -8.42506,-2.91637 -8.50608,2.592329 -4.53658,18.551351 12.07053,-4.455565 z"
       id="path1229"
       sodipodi:nodetypes="ccccccc" />
    <path
       style="fill:#909090;fill-opacity:1;stroke:none;stroke-width:0.525448px;stroke-linecap:butt;stroke-linejoin:miter;stroke-opacity:1"
       d="m 87.9028,55.708334 6.156782,-1.863236 11.989518,0.16202 8.10103,2.673339 -4.53658,18.551351 L 87.9028,55.708334 v 0"
       id="path1231" />
    <path
       style="fill:#666666;fill-opacity:1;stroke:none;stroke-width:0.525448px;stroke-linecap:butt;stroke-linejoin:miter;stroke-opacity:1"
       d="m 93.816552,46.635184 6.658528,-3.726473 10.27261,2.349299 0.16203,5.994759 3.24041,5.427688 -8.10103,-2.673339 -8.101025,-0.243031 -4.293545,-7.452944 v 0"
       id="path1233"
       sodipodi:nodetypes="ccccccccc" />
    <path
       style="fill:#424242;fill-opacity:1;stroke:none;stroke-width:0.525448px;stroke-linecap:butt;stroke-linejoin:miter;stroke-opacity:1"
       d="m 118.6867,44.447907 2.51132,-9.478202 -12.23255,4.050514 -3.48344,7.939006 5.26566,-1.701215 4.13153,-1.863237 4.13152,1.215154"
       id="path1235"
       sodipodi:nodetypes="ccccccc" />
    <path
       style="fill:#909090;fill-opacity:1;stroke:none;stroke-width:0.525448px;stroke-linecap:butt;stroke-linejoin:miter;stroke-opacity:1"
       d="m 96.165845,35.050716 6.561835,11.827499 2.75435,0.08101 3.48344,-7.939006 z"
       id="path893" />
    <path
       style="fill:#353535;fill-opacity:1;stroke:none;stroke-width:0.525448px;stroke-linecap:butt;stroke-linejoin:miter;stroke-opacity:1"
       d="m 126.05863,48.660441 -3.40242,5.427687 -8.50608,2.592329 -3.24041,-5.427688 -0.16203,-5.994759 4.13153,-1.863237 4.13152,1.215154 z"
       id="path1237" />
    <path
       style="opacity:0.33;fill:#676767;fill-opacity:1;stroke:none;stroke-width:1.14566;stroke-linecap:square;stroke-linejoin:round;paint-order:stroke fill markers"
       d="m 105.20485,33.468701 c -0.25549,-0.577575 -0.42866,-1.086001 -0.38482,-1.129837 0.0438,-0.04384 0.76,-0.326638 1.59148,-0.628449 l 1.51178,-0.548746 2.48759,0.785178 2.48759,0.785178 -0.95777,0.893405 -0.95778,0.893406 h -2.65677 -2.65677 z"
       id="path15501" />
    <path
       style="opacity:1;fill:#666666;fill-opacity:1;stroke:none;stroke-width:1.22569;stroke-linecap:square;stroke-linejoin:round;paint-order:stroke fill markers"
       d="m 102.04281,37.397567 c -3.498808,-0.957294 -5.963886,-2.355163 -5.854806,-2.446854 0.272728,-0.229255 6.888486,-2.339667 7.005576,-2.234764 5.948,0.312843 6.29045,0.416956 11.33373,0.417037 0.39797,-0.02025 6.63277,1.727357 6.63785,1.860574 0.003,0.09779 -10.76895,3.93363 -12.42149,4.315239 -0.14424,0.03331 -3.20202,-0.953939 -6.70086,-1.911232 z"
       id="path19360"
       sodipodi:nodetypes="sscccss" />
    <path
       style="fill:#666666;fill-opacity:1;stroke:none;stroke-width:0.525448px;stroke-linecap:butt;stroke-linejoin:miter;stroke-opacity:1"
       d="m 61.871077,109.26558 -4.590157,14.89643 19.199433,17.09317 2.268285,2.75434 11.098408,-19.7665 z"
       id="path55333" />
    <path
       style="fill:#353535;fill-opacity:1;stroke:none;stroke-width:1px;stroke-linecap:butt;stroke-linejoin:miter;stroke-opacity:1"
       d="m 103.94578,29.884747 6.80191,-4.069201 4.60942,2.159827 -0.34608,2.536223 -3.97501,4.491266 -5.36664,-0.484026 z"
       id="path193626"
       sodipodi:nodetypes="ccccccc" />
    <path
       style="fill:#808080;stroke:none;stroke-width:1px;stroke-linecap:butt;stroke-linejoin:miter;stroke-opacity:1"
       d="m 103.94578,29.884747 3.05247,-1.806553 2.44293,6.941707 -3.7718,-0.501065 -1.7236,-4.63409"
       id="path199498"
       sodipodi:nodetypes="ccccc" />
    <rect
       style="opacity:0.33;fill:#ffeeaa;fill-opacity:0;stroke:none;stroke-width:5;stroke-linecap:square;stroke-linejoin:round;paint-order:stroke fill markers"
       id="rect199867"
       width="37.040249"
       height="19.194633"
       x="88.186539"
       y="24.877769" />
  </g>
</svg>
