<svg width="193" height="87" viewBox="0 0 193 87" fill="none" xmlns="http://www.w3.org/2000/svg">
<path d="M16.1648 6.86932H11.9034C11.8466 6.43182 11.7301 6.03693 11.554 5.68466C11.3778 5.33239 11.1449 5.03125 10.8551 4.78125C10.5653 4.53125 10.2216 4.34091 9.82386 4.21023C9.43182 4.07386 8.99716 4.00568 8.51989 4.00568C7.6733 4.00568 6.94318 4.21307 6.32955 4.62784C5.72159 5.04261 5.25284 5.64205 4.9233 6.42614C4.59943 7.21023 4.4375 8.15909 4.4375 9.27273C4.4375 10.4318 4.60227 11.4034 4.93182 12.1875C5.26705 12.9659 5.7358 13.554 6.33807 13.9517C6.94602 14.3437 7.66477 14.5398 8.49432 14.5398C8.96023 14.5398 9.38352 14.4801 9.7642 14.3608C10.1506 14.2415 10.4886 14.0682 10.7784 13.8409C11.0739 13.608 11.3153 13.3267 11.5028 12.9972C11.696 12.6619 11.8295 12.2841 11.9034 11.8636L16.1648 11.8892C16.0909 12.6619 15.8665 13.4233 15.4915 14.1733C15.1222 14.9233 14.6136 15.608 13.9659 16.2273C13.3182 16.8409 12.5284 17.3295 11.5966 17.6932C10.6705 18.0568 9.60795 18.2386 8.40909 18.2386C6.82955 18.2386 5.41477 17.892 4.16477 17.1989C2.92045 16.5 1.9375 15.483 1.21591 14.1477C0.494318 12.8125 0.133523 11.1875 0.133523 9.27273C0.133523 7.35227 0.5 5.72443 1.23295 4.3892C1.96591 3.05398 2.95739 2.03977 4.20739 1.34659C5.45739 0.653409 6.85795 0.306818 8.40909 0.306818C9.46591 0.306818 10.4432 0.454545 11.3409 0.75C12.2386 1.03977 13.0284 1.46591 13.7102 2.02841C14.392 2.58523 14.946 3.26989 15.3722 4.08239C15.7983 4.89489 16.0625 5.82386 16.1648 6.86932ZM18.5788 0.545454H22.7891V10.6023H22.9339L29.8033 0.545454H33.4339V18H29.2152V7.92614H29.1044L22.1499 18H18.5788V0.545454ZM51.9304 6.86932H47.669C47.6122 6.43182 47.4957 6.03693 47.3196 5.68466C47.1435 5.33239 46.9105 5.03125 46.6207 4.78125C46.331 4.53125 45.9872 4.34091 45.5895 4.21023C45.1974 4.07386 44.7628 4.00568 44.2855 4.00568C43.4389 4.00568 42.7088 4.21307 42.0952 4.62784C41.4872 5.04261 41.0185 5.64205 40.6889 6.42614C40.3651 7.21023 40.2031 8.15909 40.2031 9.27273C40.2031 10.4318 40.3679 11.4034 40.6974 12.1875C41.0327 12.9659 41.5014 13.554 42.1037 13.9517C42.7116 14.3437 43.4304 14.5398 44.2599 14.5398C44.7259 14.5398 45.1491 14.4801 45.5298 14.3608C45.9162 14.2415 46.2543 14.0682 46.544 13.8409C46.8395 13.608 47.081 13.3267 47.2685 12.9972C47.4616 12.6619 47.5952 12.2841 47.669 11.8636L51.9304 11.8892C51.8565 12.6619 51.6321 13.4233 51.2571 14.1733C50.8878 14.9233 50.3793 15.608 49.7315 16.2273C49.0838 16.8409 48.294 17.3295 47.3622 17.6932C46.4361 18.0568 45.3736 18.2386 44.1747 18.2386C42.5952 18.2386 41.1804 17.892 39.9304 17.1989C38.6861 16.5 37.7031 15.483 36.9815 14.1477C36.2599 12.8125 35.8991 11.1875 35.8991 9.27273C35.8991 7.35227 36.2656 5.72443 36.9986 4.3892C37.7315 3.05398 38.723 2.03977 39.973 1.34659C41.223 0.653409 42.6236 0.306818 44.1747 0.306818C45.2315 0.306818 46.2088 0.454545 47.1065 0.75C48.0043 1.03977 48.794 1.46591 49.4759 2.02841C50.1577 2.58523 50.7116 3.26989 51.1378 4.08239C51.5639 4.89489 51.8281 5.82386 51.9304 6.86932ZM53.7734 3.97159V0.545454H68.5263V3.97159H63.2337V18H59.0746V3.97159H53.7734ZM70.5866 18V0.545454H82.7571V3.97159H74.8054V7.55114H82.1349V10.9858H74.8054V14.5739H82.7571V18H70.5866ZM85.3991 0.545454H90.6236L95.0554 11.3523H95.2599L99.6918 0.545454H104.916V18H100.808V7.27841H100.663L96.4702 17.8892H93.8452L89.652 7.21875H89.5071V18H85.3991V0.545454ZM111.323 18H106.789L112.678 0.545454H118.295L124.184 18H119.65L115.55 4.94318H115.414L111.323 18ZM110.718 11.1307H120.195V14.3352H110.718V11.1307ZM16.7955 41.2727C16.7955 43.1932 16.4261 44.821 15.6875 46.1562C14.9489 47.4915 13.9489 48.5057 12.6875 49.1989C11.4318 49.892 10.0227 50.2386 8.46023 50.2386C6.89205 50.2386 5.48011 49.8892 4.22443 49.1903C2.96875 48.4915 1.97159 47.4773 1.23295 46.1477C0.5 44.8125 0.133523 43.1875 0.133523 41.2727C0.133523 39.3523 0.5 37.7244 1.23295 36.3892C1.97159 35.054 2.96875 34.0398 4.22443 33.3466C5.48011 32.6534 6.89205 32.3068 8.46023 32.3068C10.0227 32.3068 11.4318 32.6534 12.6875 33.3466C13.9489 34.0398 14.9489 35.054 15.6875 36.3892C16.4261 37.7244 16.7955 39.3523 16.7955 41.2727ZM12.483 41.2727C12.483 40.1364 12.321 39.1761 11.9972 38.392C11.679 37.608 11.2188 37.0142 10.6165 36.6108C10.0199 36.2074 9.30114 36.0057 8.46023 36.0057C7.625 36.0057 6.90625 36.2074 6.30398 36.6108C5.7017 37.0142 5.23864 37.608 4.91477 38.392C4.59659 39.1761 4.4375 40.1364 4.4375 41.2727C4.4375 42.4091 4.59659 43.3693 4.91477 44.1534C5.23864 44.9375 5.7017 45.5312 6.30398 45.9347C6.90625 46.3381 7.625 46.5398 8.46023 46.5398C9.30114 46.5398 10.0199 46.3381 10.6165 45.9347C11.2188 45.5312 11.679 44.9375 11.9972 44.1534C12.321 43.3693 12.483 42.4091 12.483 41.2727ZM36.7386 46.7358L36.5256 54.125H32.571V50H31.3438V46.7358H36.7386ZM19.2585 50V32.5455H23.3153V46.6932H29.9972V32.5455H34.1136V50H19.2585ZM38.6648 50V32.5455H50.8352V35.9716H42.8835V39.5511H50.2131V42.9858H42.8835V46.5739H50.8352V50H38.6648ZM53.4773 50V32.5455H57.696V39.5511H64.5739V32.5455H68.7841V50H64.5739V42.9858H57.696V50H53.4773ZM82.0923 50L76.6037 42.7557H75.6491V50H71.4304V32.5455H75.6491V39.321H76.3224L81.7259 32.5455H87.0014L80.277 40.7869L87.3509 50H82.0923ZM88.8913 32.5455H93.1016V42.6023H93.2464L100.116 32.5455H103.746V50H99.5277V39.9261H99.4169L92.4624 50H88.8913V32.5455ZM10.983 82L5.49432 74.7557H4.53977V82H0.321023V64.5455H4.53977V71.321H5.21307L10.6165 64.5455H15.892L9.16761 72.7869L16.2415 82H10.983ZM33.2251 73.2727C33.2251 75.1932 32.8558 76.821 32.1172 78.1562C31.3786 79.4915 30.3786 80.5057 29.1172 81.1989C27.8615 81.892 26.4524 82.2386 24.8899 82.2386C23.3217 82.2386 21.9098 81.8892 20.6541 81.1903C19.3984 80.4915 18.4013 79.4773 17.6626 78.1477C16.9297 76.8125 16.5632 75.1875 16.5632 73.2727C16.5632 71.3523 16.9297 69.7244 17.6626 68.3892C18.4013 67.054 19.3984 66.0398 20.6541 65.3466C21.9098 64.6534 23.3217 64.3068 24.8899 64.3068C26.4524 64.3068 27.8615 64.6534 29.1172 65.3466C30.3786 66.0398 31.3786 67.054 32.1172 68.3892C32.8558 69.7244 33.2251 71.3523 33.2251 73.2727ZM28.9126 73.2727C28.9126 72.1364 28.7507 71.1761 28.4268 70.392C28.1087 69.608 27.6484 69.0142 27.0462 68.6108C26.4496 68.2074 25.7308 68.0057 24.8899 68.0057C24.0547 68.0057 23.3359 68.2074 22.7337 68.6108C22.1314 69.0142 21.6683 69.608 21.3445 70.392C21.0263 71.1761 20.8672 72.1364 20.8672 73.2727C20.8672 74.4091 21.0263 75.3693 21.3445 76.1534C21.6683 76.9375 22.1314 77.5312 22.7337 77.9347C23.3359 78.3381 24.0547 78.5398 24.8899 78.5398C25.7308 78.5398 26.4496 78.3381 27.0462 77.9347C27.6484 77.5312 28.1087 76.9375 28.4268 76.1534C28.7507 75.3693 28.9126 74.4091 28.9126 73.2727ZM35.6882 64.5455H40.9126L45.3445 75.3523H45.549L49.9808 64.5455H55.2053V82H51.0973V71.2784H50.9524L46.7592 81.8892H44.1342L39.9411 71.2188H39.7962V82H35.6882V64.5455ZM73.2713 64.5455V82H69.1122V67.9205H62.6349V82H58.4759V64.5455H73.2713ZM76.5398 82V64.5455H88.7102V67.9716H80.7585V71.5511H88.0881V74.9858H80.7585V78.5739H88.7102V82H76.5398ZM90.7812 67.9716V64.5455H105.534V67.9716H100.241V82H96.0824V67.9716H90.7812ZM107.594 82V64.5455H119.765V67.9716H111.813V71.5511H119.143V74.9858H111.813V78.5739H119.765V82H107.594ZM122.407 82V64.5455H126.626V71.5511H133.504V64.5455H137.714V82H133.504V74.9858H126.626V82H122.407ZM157.84 78.7358L157.627 86.125H153.673V82H152.445V78.7358H157.84ZM140.36 82V64.5455H144.417V78.6932H151.099V64.5455H155.215V82H140.36ZM159.766 64.5455H163.977V74.6023H164.121L170.991 64.5455H174.621V82H170.403V71.9261H170.292L163.337 82H159.766V64.5455ZM177.274 64.5455H181.484V74.6023H181.629L188.499 64.5455H192.129V82H187.911V71.9261H187.8L180.845 82H177.274V64.5455ZM186.419 59.9091H189.163C189.158 60.9773 188.754 61.8352 187.953 62.483C187.158 63.1307 186.078 63.4545 184.714 63.4545C183.351 63.4545 182.268 63.1307 181.467 62.483C180.672 61.8352 180.277 60.9773 180.283 59.9091H183.001C182.996 60.2841 183.124 60.625 183.385 60.9318C183.646 61.2386 184.089 61.392 184.714 61.392C185.322 61.392 185.757 61.2415 186.018 60.9403C186.28 60.6392 186.413 60.2955 186.419 59.9091Z" fill="white"/>
</svg>
