<svg width="36" height="36" viewBox="0 0 36 36" fill="none" xmlns="http://www.w3.org/2000/svg">
<circle cx="18" cy="18" r="18" fill="#FFD598"/>
<path d="M17.9999 7.3335C17.717 7.3335 17.4457 7.44588 17.2457 7.64592C17.0456 7.84595 16.9333 8.11727 16.9333 8.40016V10.5335C16.9333 10.8164 17.0456 11.0877 17.2457 11.2877C17.4457 11.4878 17.717 11.6002 17.9999 11.6002C18.2828 11.6002 18.5541 11.4878 18.7542 11.2877C18.9542 11.0877 19.0666 10.8164 19.0666 10.5335V8.40016C19.0666 8.11727 18.9542 7.84595 18.7542 7.64592C18.5541 7.44588 18.2828 7.3335 17.9999 7.3335ZM27.5999 16.9335H25.4666C25.1837 16.9335 24.9124 17.0459 24.7123 17.2459C24.5123 17.446 24.3999 17.7173 24.3999 18.0002C24.3999 18.2831 24.5123 18.5544 24.7123 18.7544C24.9124 18.9544 25.1837 19.0668 25.4666 19.0668H27.5999C27.8828 19.0668 28.1541 18.9544 28.3542 18.7544C28.5542 18.5544 28.6666 18.2831 28.6666 18.0002C28.6666 17.7173 28.5542 17.446 28.3542 17.2459C28.1541 17.0459 27.8828 16.9335 27.5999 16.9335ZM11.5999 18.0002C11.5999 17.7173 11.4875 17.446 11.2875 17.2459C11.0875 17.0459 10.8161 16.9335 10.5333 16.9335H8.39992C8.11702 16.9335 7.84571 17.0459 7.64567 17.2459C7.44563 17.446 7.33325 17.7173 7.33325 18.0002C7.33325 18.2831 7.44563 18.5544 7.64567 18.7544C7.84571 18.9544 8.11702 19.0668 8.39992 19.0668H10.5333C10.8161 19.0668 11.0875 18.9544 11.2875 18.7544C11.4875 18.5544 11.5999 18.2831 11.5999 18.0002ZM11.8346 10.5335C11.6267 10.3369 11.3491 10.2309 11.0631 10.2389C10.777 10.2469 10.5059 10.3682 10.3093 10.5762C10.1126 10.7841 10.0067 11.0616 10.0147 11.3477C10.0227 11.6337 10.144 11.9049 10.3519 12.1015L11.8879 13.5842C11.991 13.6837 12.1131 13.7614 12.2469 13.8128C12.3806 13.8641 12.5234 13.8879 12.6666 13.8828C12.8103 13.8823 12.9524 13.8527 13.0843 13.7959C13.2163 13.7391 13.3354 13.6562 13.4346 13.5522C13.6333 13.3523 13.7448 13.082 13.7448 12.8002C13.7448 12.5184 13.6333 12.248 13.4346 12.0482L11.8346 10.5335ZM23.3333 13.8828C23.6079 13.8817 23.8715 13.7748 24.0693 13.5842L25.6053 12.1015C25.7926 11.9057 25.8985 11.6459 25.9013 11.375C25.904 11.104 25.8036 10.8421 25.6203 10.6425C25.437 10.4429 25.1846 10.3205 24.9143 10.3003C24.6441 10.28 24.3762 10.3634 24.1653 10.5335L22.6293 12.0482C22.4306 12.248 22.3191 12.5184 22.3191 12.8002C22.3191 13.082 22.4306 13.3523 22.6293 13.5522C22.8139 13.7471 23.0653 13.8651 23.3333 13.8828ZM17.9999 24.4002C17.717 24.4002 17.4457 24.5125 17.2457 24.7126C17.0456 24.9126 16.9333 25.1839 16.9333 25.4668V27.6002C16.9333 27.8831 17.0456 28.1544 17.2457 28.3544C17.4457 28.5545 17.717 28.6668 17.9999 28.6668C18.2828 28.6668 18.5541 28.5545 18.7542 28.3544C18.9542 28.1544 19.0666 27.8831 19.0666 27.6002V25.4668C19.0666 25.1839 18.9542 24.9126 18.7542 24.7126C18.5541 24.5125 18.2828 24.4002 17.9999 24.4002ZM24.1119 22.4162C23.9082 22.2195 23.6348 22.1119 23.3517 22.1169C23.0687 22.1219 22.7992 22.2391 22.6026 22.4428C22.406 22.6465 22.2983 22.92 22.3033 23.203C22.3083 23.4861 22.4256 23.7556 22.6293 23.9522L24.1653 25.4668C24.363 25.6574 24.6266 25.7644 24.9013 25.7655C25.0442 25.7663 25.1858 25.7384 25.3177 25.6835C25.4497 25.6285 25.5692 25.5476 25.6693 25.4455C25.7692 25.3463 25.8486 25.2284 25.9027 25.0984C25.9569 24.9684 25.9848 24.829 25.9848 24.6882C25.9848 24.5474 25.9569 24.4079 25.9027 24.2779C25.8486 24.148 25.7692 24.03 25.6693 23.9308L24.1119 22.4162ZM11.8879 22.4162L10.3519 23.8988C10.2519 23.998 10.1726 24.116 10.1184 24.2459C10.0643 24.3759 10.0364 24.5154 10.0364 24.6562C10.0364 24.797 10.0643 24.9364 10.1184 25.0664C10.1726 25.1964 10.2519 25.3143 10.3519 25.4135C10.452 25.5156 10.5715 25.5965 10.7034 25.6515C10.8354 25.7064 10.977 25.7343 11.1199 25.7335C11.3829 25.7357 11.6374 25.6408 11.8346 25.4668L13.3706 23.9842C13.5743 23.7875 13.6915 23.5181 13.6965 23.235C13.7015 22.952 13.5939 22.6785 13.3973 22.4748C13.2006 22.2711 12.9312 22.1539 12.6481 22.1489C12.3651 22.1439 12.0916 22.2515 11.8879 22.4482V22.4162Z" fill="white"/>
</svg>
