<svg width="21" height="23" viewBox="0 0 21 23" fill="none" xmlns="http://www.w3.org/2000/svg">
<path d="M0.472168 12.5282H6.72217V10.4448H0.472168V0.909416C0.472183 0.81891 0.495783 0.729971 0.54064 0.651364C0.585498 0.572757 0.650065 0.507196 0.727977 0.461142C0.805889 0.415089 0.894458 0.390133 0.984952 0.388734C1.07545 0.387335 1.16474 0.409542 1.24404 0.453166L20.4753 11.0302C20.557 11.0752 20.625 11.1413 20.6725 11.2215C20.7199 11.3018 20.7449 11.3933 20.7449 11.4865C20.7449 11.5797 20.7199 11.6712 20.6725 11.7515C20.625 11.8317 20.557 11.8978 20.4753 11.9427L1.24404 22.5198C1.16474 22.5635 1.07545 22.5857 0.984952 22.5843C0.894458 22.5829 0.805889 22.5579 0.727977 22.5119C0.650065 22.4658 0.585498 22.4002 0.54064 22.3216C0.495783 22.243 0.472183 22.1541 0.472168 22.0636V12.5282Z" fill="#0B0C10"/>
</svg>
