<svg width="50" height="50" viewBox="0 0 50 50" fill="none" xmlns="http://www.w3.org/2000/svg">
<path d="M14.3026 10.6959L15.8388 9.69826L17.4708 8.86669L19.1809 8.21027L20.9501 7.7362L22.7593 7.44965L24.5885 7.35379L26.4176 7.44965L28.2268 7.73619L29.996 8.21027L31.7061 8.86669L33.3381 9.69825L34.8743 10.6959L36.2978 11.8486L37.593 13.1438L38.7457 14.5673L39.7433 16.1034L40.5749 17.7355L41.2313 19.4455L41.7054 21.2148L41.9919 23.0239L42.0878 24.8531L41.9919 26.6823L41.7054 28.4914L41.2313 30.2607L40.5749 31.9707L39.7433 33.6028L38.7457 35.139L37.593 36.5624L36.2978 37.8576L34.8743 39.0104L33.3381 40.008L31.7061 40.8395L29.9961 41.4959L28.2268 41.97L26.4176 42.2566L24.5884 42.3524L22.7593 42.2566L20.9501 41.97L19.1809 41.4959L17.4708 40.8395L15.8388 40.008L14.3026 39.0103L12.8791 37.8576L11.5839 36.5624L10.4312 35.1389L9.43361 33.6028L8.60204 31.9707L7.94562 30.2607L7.47155 28.4914L7.18501 26.6823L7.08914 24.8531L7.18501 23.0239L7.47155 21.2148L7.94562 19.4455L8.60204 17.7355L9.43361 16.1034L10.4312 14.5673L11.5839 13.1438L12.8791 11.8486L14.3026 10.6959Z" fill="white" stroke="#70C493"/>
<path d="M30.3334 20.999L23.0001 28.3324L19.6667 24.999" stroke="#70C493" stroke-width="2" stroke-linecap="round" stroke-linejoin="round"/>
</svg>
