<svg width="50" height="50" viewBox="0 0 50 50" fill="none" xmlns="http://www.w3.org/2000/svg">
<path d="M14.3026 10.4312L15.8388 9.43361L17.4708 8.60204L19.1809 7.94562L20.9501 7.47155L22.7593 7.18501L24.5885 7.08914L26.4176 7.18501L28.2268 7.47155L29.996 7.94562L31.7061 8.60204L33.3381 9.4336L34.8743 10.4312L36.2978 11.5839L37.593 12.8791L38.7457 14.3026L39.7433 15.8388L40.5749 17.4708L41.2313 19.1809L41.7054 20.9502L41.9919 22.7593L42.0878 24.5885L41.9919 26.4176L41.7054 28.2268L41.2313 29.996L40.5749 31.7061L39.7433 33.3381L38.7457 34.8743L37.593 36.2978L36.2978 37.593L34.8743 38.7457L33.3381 39.7433L31.7061 40.5749L29.9961 41.2313L28.2268 41.7054L26.4176 41.9919L24.5884 42.0878L22.7593 41.9919L20.9501 41.7054L19.1809 41.2313L17.4708 40.5749L15.8388 39.7433L14.3026 38.7457L12.8791 37.593L11.5839 36.2978L10.4312 34.8743L9.43361 33.3381L8.60204 31.7061L7.94562 29.996L7.47155 28.2268L7.18501 26.4176L7.08914 24.5885L7.18501 22.7593L7.47155 20.9501L7.94562 19.1809L8.60204 17.4708L9.43361 15.8388L10.4312 14.3026L11.5839 12.8791L12.8791 11.5839L14.3026 10.4312Z" fill="white" stroke="#70C493"/>
<path d="M25 17L26.7961 22.5279H32.6085L27.9062 25.9443L29.7023 31.4721L25 28.0557L20.2977 31.4721L22.0938 25.9443L17.3915 22.5279H23.2039L25 17Z" fill="#70C493"/>
</svg>
